<svg xmlns="http://www.w3.org/2000/svg" version="1.1" xmlns:xlink="http://www.w3.org/1999/xlink" xmlns:svgjs="http://svgjs.dev/svgjs" width="2560" height="1440" preserveAspectRatio="none" viewBox="0 0 2560 1440"><g mask="url(&quot;#SvgjsMask1091&quot;)" fill="none"><rect width="2560" height="1440" x="0" y="0" fill="url(&quot;#SvgjsLinearGradient1092&quot;)"></rect><path d="M0 0L1264.96 0L0 548.63z" fill="rgba(255, 255, 255, .1)"></path><path d="M0 548.63L1264.96 0L1732.24 0L0 954.1700000000001z" fill="rgba(255, 255, 255, .075)"></path><path d="M0 954.1700000000001L1732.24 0L2027.3400000000001 0L0 1046.3200000000002z" fill="rgba(255, 255, 255, .05)"></path><path d="M0 1046.3200000000002L2027.3400000000001 0L2287.26 0L0 1262.9900000000002z" fill="rgba(255, 255, 255, .025)"></path><path d="M2560 1440L1970.03 1440L2560 1333.88z" fill="rgba(0, 0, 0, .1)"></path><path d="M2560 1333.88L1970.03 1440L955.39 1440L2560 735.7600000000001z" fill="rgba(0, 0, 0, .075)"></path><path d="M2560 735.76L955.3899999999999 1440L849.9399999999998 1440L2560 574.21z" fill="rgba(0, 0, 0, .05)"></path><path d="M2560 574.21L849.9399999999998 1440L568.1299999999999 1440L2560 420.75z" fill="rgba(0, 0, 0, .025)"></path></g><defs><mask id="SvgjsMask1091"><rect width="2560" height="1440" fill="#ffffff"></rect></mask><linearGradient x1="10.94%" y1="-19.44%" x2="89.06%" y2="119.44%" gradientUnits="userSpaceOnUse" id="SvgjsLinearGradient1092"><stop stop-color="rgba(255, 255, 255, 0.17)" offset="0"></stop><stop stop-color="rgba(59, 74, 255, 0.58)" offset="0.82"></stop></linearGradient></defs></svg>