<svg xmlns="http://www.w3.org/2000/svg" version="1.1" xmlns:xlink="http://www.w3.org/1999/xlink" xmlns:svgjs="http://svgjs.dev/svgjs" width="2560" height="1440" preserveAspectRatio="none" viewBox="0 0 2560 1440"><g mask="url(&quot;#SvgjsMask2195&quot;)" fill="none"><rect width="2560" height="1440" x="0" y="0" fill="url(&quot;#SvgjsLinearGradient2196&quot;)"></rect><path d="M2560 0L2455.24 0L2560 589.05z" fill="rgba(255, 255, 255, .1)"></path><path d="M2455.24 0L2560 589.05L2560 974.0799999999999L2363.41 0z" fill="rgba(255, 255, 255, .075)"></path><path d="M2363.41 0L2560 974.0799999999999L2560 1065.1399999999999L1297.62 0z" fill="rgba(255, 255, 255, .05)"></path><path d="M1297.6200000000001 0L2560 1065.1399999999999L2560 1272.33L1249.99 0z" fill="rgba(255, 255, 255, .025)"></path><path d="M0 1440L310.49 1440L0 753.61z" fill="rgba(0, 0, 0, .1)"></path><path d="M0 753.61L310.49 1440L1253.83 1440L0 351.43z" fill="rgba(0, 0, 0, .075)"></path><path d="M0 351.43000000000006L1253.83 1440L1840.03 1440L0 182.71000000000006z" fill="rgba(0, 0, 0, .05)"></path><path d="M0 182.71000000000004L1840.03 1440L2340.17 1440L0 58.61000000000004z" fill="rgba(0, 0, 0, .025)"></path></g><defs><mask id="SvgjsMask2195"><rect width="2560" height="1440" fill="#ffffff"></rect></mask><linearGradient x1="10.94%" y1="-19.44%" x2="89.06%" y2="119.44%" gradientUnits="userSpaceOnUse" id="SvgjsLinearGradient2196"><stop stop-color="rgba(255, 255, 255, 0.17)" offset="0"></stop><stop stop-color="rgba(59, 74, 255, 1)" offset="0.82"></stop></linearGradient></defs></svg>